<svg width="200" height="200" viewBox="0 0 200 200" fill="none" xmlns="http://www.w3.org/2000/svg">
  <g clip-path="url(#clip0_2_4)">
    <path
      d="M112.484 57.4453C112.979 57.4453 113.37 57.6016 113.656 57.9141C113.943 58.2266 114.086 58.5521 114.086 58.8906C114.086 59.2031 113.826 59.8021 113.305 60.6875C112.81 61.5469 111.651 63.4479 109.828 66.3906C108.005 69.3073 106.586 71.599 105.57 73.2656C99.6589 82.875 95.0234 91 91.6641 97.6406C88.3047 104.281 86.625 108.292 86.625 109.672V109.984C86.625 111.052 87.0156 111.586 87.7969 111.586C88.5781 111.586 89.5156 111.221 90.6094 110.492C91.7292 109.763 92.7057 108.982 93.5391 108.148C94.3724 107.315 95.2057 106.456 96.0391 105.57C96.8984 104.659 97.4193 104.125 97.6016 103.969C97.7839 103.812 98.0182 103.734 98.3047 103.734C98.7474 103.734 99.0339 104.021 99.1641 104.594C99.2943 105.141 99.3594 105.922 99.3594 106.938C99.3594 107.927 99.2812 108.578 99.125 108.891C98.3698 110.349 96.7031 112.133 94.125 114.242C91.5729 116.326 89.151 117.367 86.8594 117.367C82.9531 117.367 81 115.714 81 112.406C81 110.349 81.7812 107.654 83.3438 104.32C81.2344 107.055 79.0859 109.385 76.8984 111.312C72.8359 114.854 69.3073 116.625 66.3125 116.625C64.6458 116.625 63.4089 116.039 62.6016 114.867C61.8203 113.695 61.4297 112.016 61.4297 109.828C61.4297 107.615 62.2891 104.971 64.0078 101.898C65.7266 98.8255 67.862 96.0651 70.4141 93.6172C72.9922 91.1432 75.8438 89.0859 78.9688 87.4453C82.0938 85.7786 84.9714 84.9453 87.6016 84.9453C88.4349 84.9453 89.4115 85.4531 90.5312 86.4688C91.2865 85.2708 92.6797 82.875 94.7109 79.2812C101.091 68.526 105.31 61.9635 107.367 59.5938C108.461 58.1615 110.167 57.4453 112.484 57.4453ZM88.1484 90.1406C84.3984 90.974 80.9089 92.7188 77.6797 95.375C74.4505 98.0312 72.0286 100.818 70.4141 103.734C68.7995 106.625 67.9922 108.5 67.9922 109.359C67.9922 110.219 68.1745 110.648 68.5391 110.648C70.1016 110.648 73.9688 107.159 80.1406 100.18C83.2135 96.7422 85.8828 93.3958 88.1484 90.1406ZM118.148 74.4375L118.852 74.3594C119.242 74.3594 119.555 74.6979 119.789 75.375C120.023 76.0521 120.141 76.5078 120.141 76.7422C120.141 76.9766 119.88 77.4193 119.359 78.0703L108.227 95.0234C112.133 91.1172 116.104 88.2656 120.141 86.4688C121.703 85.7917 123.109 85.4531 124.359 85.4531C125.635 85.4531 126.651 85.8698 127.406 86.7031C128.188 87.5104 128.578 88.526 128.578 89.75C128.578 90.974 128.24 92.4844 127.562 94.2812C126.885 96.0781 125.961 97.9922 124.789 100.023C123.643 102.055 122.237 104.099 120.57 106.156C118.93 108.214 117.198 110.076 115.375 111.742C113.578 113.409 111.612 114.763 109.477 115.805C107.341 116.846 105.466 117.367 103.852 117.367C100.596 117.367 98.9688 115.87 98.9688 112.875C95.9219 117.536 92.4062 123.057 88.4219 129.438C84.4375 135.818 82.3021 139.19 82.0156 139.555C81.7292 139.919 81.4948 140.102 81.3125 140.102C81.1042 140.102 80.8047 139.984 80.4141 139.75C79.9974 139.516 79.5677 139.125 79.125 138.578C78.6823 138.031 78.4609 137.237 78.4609 136.195C78.4349 135.154 78.7344 134.099 79.3594 133.031C82.875 127.172 89.6458 116.156 99.6719 99.9844C109.724 83.7865 115.167 75.4141 116 74.8672C116.469 74.5547 116.938 74.3984 117.406 74.3984L118.148 74.4375ZM121.586 92.4062C121.586 91.8594 121.326 91.5859 120.805 91.5859C119.398 91.5859 116.417 93.7474 111.859 98.0703C107.328 102.393 103.721 106.339 101.039 109.906C101.716 110.74 102.719 111.156 104.047 111.156C105.375 111.156 107.094 110.44 109.203 109.008C111.312 107.576 113.266 105.883 115.062 103.93C116.859 101.951 118.396 99.8802 119.672 97.7188C120.948 95.5573 121.586 93.7865 121.586 92.4062Z"
      fill="#F8B525" />
  </g>
  <rect x="0.5" y="0.5" width="199" height="199" rx="99.5" stroke="#F8B525" />
  <defs>
    <clipPath id="clip0_2_4">
      <rect width="200" height="200" rx="100" fill="white" />
    </clipPath>
  </defs>
</svg>